# xmcd
#
# Track frame offsets:
#	150
#	20085
#	36595
#	57383
#	78288
#	102713
#	125588
#	138823
#	153328
#	173855
#	191560
#	210703
#	228335
#
# Disc length: 3334 seconds
#
# Revision: 1
# Processed by: cddbd v1.5.1PL0 Copyright (c) Steve Scherf et al.
# Submitted via: audiograbber 1.83.01
#
DISCID=b70d040d
DTITLE=INGA RUMPF_NDR BIG BAND - It's a mens world
DYEAR=1900
DGENRE=Blues
TTITLE0=Way to heaven
TTITLE1=Unchain my heart
TTITLE2=Still got the blues
TTITLE3=The good things
TTITLE4=Its a mens world
TTITLE5=Friends
TTITLE6=Hot summer night
TTITLE7=Its like driving
TTITLE8=How do you stop
TTITLE9=Toothbrush
TTITLE10=Like a ship
TTITLE11=The blues dont get tired of me
TTITLE12=Jumping jack flash
EXTD=
EXTT0=
EXTT1=
EXTT2=
EXTT3=
EXTT4=
EXTT5=
EXTT6=
EXTT7=
EXTT8=
EXTT9=
EXTT10=
EXTT11=
EXTT12=
PLAYORDER=
